<svg xmlns="http://www.w3.org/2000/svg" viewBox="0 0 320 84" width="320" height="84" aria-label="Rayan Group Logo">
  <!-- Symbol: Dynamic Stylized R -->
  <g transform="translate(4, 6)">
    <!-- Electric Cyan Lower Wing -->
    <path d="M 32 46 L 16 23 L 28 23 C 27.5 21.7 25 18.3 24.3 17.5 C 22.6 15.8 21 15.2 18.3 15.2 C 13.5 15.2 7 14.8 2.3 15.3 C 2.5 16 7.6 23 8.4 24.2 L 21.2 42.4 C 24 46.3 26.8 46.2 32 46 Z" fill="#0099e6"/>
    <!-- White / Light Head & Upper Curve -->
    <path d="M 22.9 27 L 31.4 39.3 C 35 44.2 36.3 47.4 44.5 46.2 C 42.9 43.4 36.1 34.6 35.3 32.9 C 36.1 32 37 31 37.4 30.5 C 43.5 23.7 42.5 12.5 36.5 6.8 C 32.7 3.1 28.6 3.7 23 3.7 C 17.6 3.7 12.1 3.8 6.7 3.7 C 7.1 4.7 9.4 8 10.1 8.7 C 14.8 14 22 10 30 11.5 C 33.8 12.2 36.7 17.4 34.5 22.8 C 32.3 28.1 28.1 26.4 22.9 27 Z" fill="#ffffff"/>
  </g>
  <!-- Brand Text: RAYAN -->
  <text x="70" y="44" font-family="'Outfit', 'Plus Jakarta Sans', sans-serif" font-size="44" font-weight="900" letter-spacing="0.04em" fill="#ffffff">RAYAN</text>
  <!-- Sub-label: GROUP -->
  <text x="72" y="68" font-family="'Outfit', 'Plus Jakarta Sans', sans-serif" font-size="18" font-weight="700" letter-spacing="0.32em" fill="#0099e6">GROUP</text>
</svg>
